# xmcd
#
# Track frame offsets: 
#        150
#        39130
#        61438
#        82919
#        101921
#        114816
#        131671
#        149035
#        167263
#        183453
#
# Disc length: 2830 seconds
#
# Revision: 0
# Processed by: cddbd v1.5.1PL2 Copyright (c) Steve Scherf et al.
# Submitted via: ExactAudioCopy v0.95b4
#
DISCID=7f0b0c0a
DTITLE=Danse Society - Heaven Is Waiting (LP Version)
DYEAR=1984
DGENRE=Alternative
TTITLE0=Come Inside
TTITLE1=Wake Up
TTITLE2=Angel
TTITLE3=Where Are We Now
TTITLE4=Red Light (Shine)
TTITLE5=Heaven Is Waiting
TTITLE6=The Hurt
TTITLE7=2000 Light Years From Home
TTITLE8=Valiant To Vile
TTITLE9=The Night
EXTD=
EXTT0=
EXTT1=
EXTT2=
EXTT3=
EXTT4=
EXTT5=
EXTT6=
EXTT7=
EXTT8=
EXTT9=
PLAYORDER=
